<svg width="44" height="44" viewBox="0 0 44 44" fill="none" xmlns="http://www.w3.org/2000/svg">
<path fill-rule="evenodd" clip-rule="evenodd" d="M22 44C34.1503 44 44 34.1503 44 22C44 9.84974 34.1503 0 22 0C9.84974 0 0 9.84974 0 22C0 34.1503 9.84974 44 22 44Z" fill="#D8D8D8"/>
<mask id="mask0_314_147" style="mask-type:luminance" maskUnits="userSpaceOnUse" x="0" y="0" width="44" height="44">
<path fill-rule="evenodd" clip-rule="evenodd" d="M22 44C34.1503 44 44 34.1503 44 22C44 9.84974 34.1503 0 22 0C9.84974 0 0 9.84974 0 22C0 34.1503 9.84974 44 22 44Z" fill="white"/>
</mask>
<g mask="url(#mask0_314_147)">
</g>
<path d="M14 29C16.3358 26.5226 19.507 25 23 25C26.493 25 29.6642 26.5226 32 29M27.5 16.5C27.5 18.9853 25.4853 21 23 21C20.5147 21 18.5 18.9853 18.5 16.5C18.5 14.0147 20.5147 12 23 12C25.4853 12 27.5 14.0147 27.5 16.5Z" stroke="black" stroke-width="2" stroke-linecap="round" stroke-linejoin="round"/>
</svg>
