<svg width="20" height="20" viewBox="0 0 20 20" fill="none" xmlns="http://www.w3.org/2000/svg">
<path d="M10 19.5C15.2467 19.5 19.5 15.2467 19.5 10C19.5 4.75329 15.2467 0.5 10 0.5C4.75329 0.5 0.5 4.75329 0.5 10C0.5 15.2467 4.75329 19.5 10 19.5Z" stroke="black"/>
<path d="M10 10.7929L7.73162 8.14645C7.56425 7.95118 7.29289 7.95118 7.12553 8.14645C6.95816 8.34171 6.95816 8.65829 7.12553 8.85355L9.69695 11.8536C9.86432 12.0488 10.1357 12.0488 10.303 11.8536L12.8745 8.85355C13.0418 8.65829 13.0418 8.34171 12.8745 8.14645C12.7071 7.95118 12.4358 7.95118 12.2684 8.14645L10 10.7929Z" fill="black"/>
<mask id="mask0_304_157" style="mask-type:luminance" maskUnits="userSpaceOnUse" x="7" y="8" width="6" height="4">
<path d="M10 10.7929L7.73162 8.14645C7.56425 7.95118 7.29289 7.95118 7.12553 8.14645C6.95816 8.34171 6.95816 8.65829 7.12553 8.85355L9.69695 11.8536C9.86432 12.0488 10.1357 12.0488 10.303 11.8536L12.8745 8.85355C13.0418 8.65829 13.0418 8.34171 12.8745 8.14645C12.7071 7.95118 12.4358 7.95118 12.2684 8.14645L10 10.7929Z" fill="white"/>
</mask>
<g mask="url(#mask0_304_157)">
</g>
</svg>
