<svg width="22" height="22" viewBox="0 0 22 22" fill="none" xmlns="http://www.w3.org/2000/svg">
<path d="M15.5827 9.16667V7.33333C15.5827 4.80203 13.5307 2.75 10.9993 2.75C8.46804 2.75 6.41602 4.80203 6.41602 7.33333V9.16667M10.9993 13.2917V15.125M8.06602 19.25H13.9327C15.4728 19.25 16.2429 19.25 16.8312 18.9503C17.3486 18.6866 17.7693 18.2659 18.033 17.7485C18.3327 17.1602 18.3327 16.3901 18.3327 14.85V13.5667C18.3327 12.0265 18.3327 11.2564 18.033 10.6682C17.7693 10.1507 17.3486 9.73005 16.8312 9.4664C16.2429 9.16667 15.4728 9.16667 13.9327 9.16667H8.06602C6.52587 9.16667 5.7558 9.16667 5.16754 9.4664C4.6501 9.73005 4.2294 10.1507 3.96575 10.6682C3.66602 11.2564 3.66602 12.0265 3.66602 13.5667V14.85C3.66602 16.3901 3.66602 17.1602 3.96575 17.7485C4.2294 18.2659 4.6501 18.6866 5.16754 18.9503C5.7558 19.25 6.52587 19.25 8.06602 19.25Z" stroke="#A6B3BE" stroke-linecap="round" stroke-linejoin="round"/>
</svg>
