<svg width="22" height="22" viewBox="0 0 22 22" fill="none" xmlns="http://www.w3.org/2000/svg">
<path d="M1.83398 6.4165L9.31849 11.6557C9.92457 12.0799 10.2276 12.292 10.5572 12.3742C10.8484 12.4468 11.1529 12.4468 11.4441 12.3742C11.7737 12.292 12.0767 12.0799 12.6828 11.6557L20.1673 6.4165M6.23398 18.3332H15.7673C17.3075 18.3332 18.0775 18.3332 18.6658 18.0334C19.1832 17.7698 19.6039 17.3491 19.8676 16.8316C20.1673 16.2434 20.1673 15.4733 20.1673 13.9332V8.0665C20.1673 6.52636 20.1673 5.75629 19.8676 5.16803C19.6039 4.65058 19.1832 4.22989 18.6658 3.96624C18.0775 3.6665 17.3075 3.6665 15.7673 3.6665H6.23398C4.69384 3.6665 3.92377 3.6665 3.33551 3.96624C2.81806 4.22989 2.39737 4.65058 2.13372 5.16803C1.83398 5.75629 1.83398 6.52636 1.83398 8.0665V13.9332C1.83398 15.4733 1.83398 16.2434 2.13372 16.8316C2.39737 17.3491 2.81806 17.7698 3.33551 18.0334C3.92377 18.3332 4.69384 18.3332 6.23398 18.3332Z" stroke="#A6B3BE" stroke-linecap="round" stroke-linejoin="round"/>
</svg>
