<svg width="25" height="24" viewBox="0 0 25 24" fill="none" xmlns="http://www.w3.org/2000/svg">
<g id="&#236;&#149;&#132;&#236;&#157;&#180;&#236;&#189;&#152;/&#235;&#141;&#148;&#235;&#179;&#180;&#234;&#184;&#176;">
<g id="Icon">
<path d="M12.332 13C12.8843 13 13.332 12.5523 13.332 12C13.332 11.4477 12.8843 11 12.332 11C11.7797 11 11.332 11.4477 11.332 12C11.332 12.5523 11.7797 13 12.332 13Z" stroke="#BFBFBF" stroke-width="2" stroke-linecap="round" stroke-linejoin="round"/>
<path d="M19.332 13C19.8843 13 20.332 12.5523 20.332 12C20.332 11.4477 19.8843 11 19.332 11C18.7797 11 18.332 11.4477 18.332 12C18.332 12.5523 18.7797 13 19.332 13Z" stroke="#BFBFBF" stroke-width="2" stroke-linecap="round" stroke-linejoin="round"/>
<path d="M5.33203 13C5.88432 13 6.33203 12.5523 6.33203 12C6.33203 11.4477 5.88432 11 5.33203 11C4.77975 11 4.33203 11.4477 4.33203 12C4.33203 12.5523 4.77975 13 5.33203 13Z" stroke="#BFBFBF" stroke-width="2" stroke-linecap="round" stroke-linejoin="round"/>
</g>
</g>
</svg>
