<svg width="24" height="24" viewBox="0 0 24 24" fill="none" xmlns="http://www.w3.org/2000/svg">
<g id="Settings" clip-path="url(#clip0_726_4020)">
<path id="Vector" d="M10.6584 0.960938C10.5447 0.960998 10.4346 1.00147 10.3479 1.07513C10.2612 1.14879 10.2035 1.25086 10.185 1.36313L9.71813 4.22156C9.15673 4.38487 8.6214 4.60523 8.11688 4.87969L5.75813 3.195C5.66578 3.12906 5.55305 3.09796 5.43995 3.10723C5.32686 3.11649 5.2207 3.16553 5.14031 3.24563L3.27281 5.11125C3.19301 5.19111 3.1439 5.29654 3.13413 5.40902C3.12436 5.5215 3.15454 5.63382 3.21938 5.72625L4.87875 8.1C4.60006 8.60747 4.37482 9.14581 4.2075 9.7125L1.36125 10.1859C1.24932 10.2048 1.1477 10.2627 1.07441 10.3494C1.00113 10.436 0.960925 10.5459 0.960938 10.6594V13.2994C0.960734 13.4122 1.00027 13.5215 1.07262 13.6081C1.14497 13.6946 1.2455 13.753 1.35656 13.7728L4.20469 14.2772C4.3711 14.8429 4.59491 15.3816 4.87406 15.8897L3.19406 18.24C3.12812 18.3323 3.09702 18.4451 3.10629 18.5582C3.11556 18.6713 3.16459 18.7774 3.24469 18.8578L5.11125 20.7253C5.19094 20.805 5.29613 20.8542 5.4084 20.8641C5.52067 20.874 5.63286 20.8442 5.72531 20.7797L8.10375 19.1147C8.60976 19.3908 9.1464 19.6127 9.70969 19.7775L10.185 22.6397C10.2037 22.7518 10.2615 22.8536 10.3482 22.9271C10.4349 23.0006 10.5448 23.0409 10.6584 23.0409H13.2984C13.4114 23.0411 13.5208 23.0014 13.6074 22.9289C13.694 22.8564 13.7522 22.7556 13.7719 22.6444L14.2809 19.7709C14.8419 19.6037 15.376 19.3784 15.8794 19.1006L18.2738 20.7806C18.3662 20.8455 18.4785 20.8756 18.591 20.8659C18.7035 20.8561 18.8089 20.807 18.8888 20.7272L20.7553 18.8587C20.8358 18.7781 20.8849 18.6716 20.894 18.558C20.9031 18.4445 20.8716 18.3315 20.805 18.2391L19.0978 15.8691C19.3708 15.3681 19.5907 14.8372 19.7541 14.28L22.6425 13.7737C22.7537 13.7541 22.8545 13.6959 22.927 13.6093C22.9996 13.5227 23.0392 13.4133 23.0391 13.3003V10.6603C23.039 10.5465 22.9985 10.4365 22.9249 10.3498C22.8512 10.2631 22.7491 10.2053 22.6369 10.1869L19.7531 9.71531C19.5886 9.15877 19.3681 8.6288 19.095 8.12813L20.7788 5.72906C20.8436 5.63663 20.8738 5.52431 20.864 5.41183C20.8542 5.29936 20.8051 5.19392 20.7253 5.11406L18.8578 3.2475C18.7772 3.16706 18.6706 3.1179 18.5571 3.1088C18.4436 3.09969 18.3305 3.13124 18.2381 3.19781L15.8747 4.8975C15.3711 4.62085 14.8367 4.39677 14.2744 4.23094L13.7719 1.35844C13.7524 1.24703 13.6943 1.14606 13.6077 1.07334C13.521 1.00062 13.4115 0.960811 13.2984 0.960938H10.6584ZM11.0672 1.92094H12.8953L13.3734 4.65C13.3893 4.74153 13.4315 4.82648 13.4947 4.89454C13.5579 4.9626 13.6396 5.01085 13.7297 5.03344C14.4317 5.20838 15.091 5.48568 15.6928 5.85C15.7733 5.89875 15.8663 5.92279 15.9603 5.91912C16.0543 5.91545 16.1451 5.88424 16.2216 5.82938L18.4678 4.215L19.7606 5.50781L18.1613 7.78688C18.1078 7.8629 18.0776 7.9528 18.0743 8.04566C18.071 8.13852 18.0947 8.23034 18.1425 8.31C18.5032 8.91044 18.7768 9.5656 18.9516 10.2638C18.9743 10.3547 19.0232 10.437 19.0922 10.5004C19.1611 10.5639 19.2472 10.6058 19.3397 10.6209L22.0791 11.0691V12.8972L19.3341 13.3791C19.2425 13.3953 19.1575 13.4378 19.0896 13.5013C19.0217 13.5649 18.9738 13.6469 18.9516 13.7372C18.7788 14.4344 18.5051 15.0896 18.1444 15.69C18.096 15.7704 18.0722 15.8633 18.076 15.9571C18.0799 16.051 18.1111 16.1416 18.1659 16.2178L19.7878 18.4688L18.495 19.7625L16.2197 18.1659C16.1433 18.1124 16.0529 18.0823 15.9597 18.0793C15.8665 18.0763 15.7744 18.1006 15.6947 18.1491C15.0959 18.5134 14.4359 18.792 13.7363 18.9694C13.6466 18.992 13.5653 19.04 13.5023 19.1077C13.4392 19.1754 13.3971 19.2599 13.3809 19.3509L12.8963 22.0809H11.0653L10.6134 19.3631C10.5981 19.2707 10.556 19.1847 10.4923 19.1159C10.4287 19.0471 10.3463 18.9985 10.2553 18.9759C9.55289 18.8028 8.89061 18.5259 8.28469 18.1622C8.20514 18.1145 8.11349 18.091 8.02082 18.0943C7.92815 18.0976 7.83843 18.1277 7.7625 18.1809L5.505 19.7625L4.21125 18.4669L5.80688 16.2366C5.86141 16.1601 5.89234 16.0694 5.89584 15.9756C5.89934 15.8818 5.87525 15.789 5.82656 15.7087C5.45887 15.1012 5.18079 14.439 5.00531 13.7334C4.98286 13.6436 4.93489 13.5621 4.86719 13.4989C4.79949 13.4357 4.71494 13.3934 4.62375 13.3772L1.92094 12.8972V11.0662L4.62188 10.6172C4.71421 10.6019 4.80005 10.5599 4.86884 10.4964C4.93763 10.433 4.98637 10.3508 5.00906 10.26C5.18605 9.55205 5.464 8.88993 5.83031 8.28375C5.87862 8.20417 5.90274 8.11226 5.89975 8.01921C5.89675 7.92616 5.86676 7.836 5.81344 7.75969L4.23656 5.50594L5.53125 4.21219L7.76906 5.81156C7.8452 5.86585 7.93552 5.89672 8.02895 5.90038C8.12239 5.90405 8.21485 5.88034 8.295 5.83219C8.89772 5.4702 9.56154 5.19554 10.2647 5.02313C10.3561 5.00062 10.4389 4.95174 10.5027 4.88257C10.5665 4.81339 10.6086 4.72697 10.6238 4.63406L11.0672 1.92094ZM12 8.16094C9.88491 8.16094 8.16 9.88585 8.16 12.0009C8.16 14.116 9.88491 15.8409 12 15.8409C14.1151 15.8409 15.84 14.116 15.84 12.0009C15.84 9.88585 14.1151 8.16094 12 8.16094ZM12 9.12094C13.5963 9.12094 14.88 10.4047 14.88 12.0009C14.88 13.5972 13.5963 14.8809 12 14.8809C10.4037 14.8809 9.12 13.5972 9.12 12.0009C9.12 10.4047 10.4037 9.12094 12 9.12094Z" fill="black"/>
</g>
<defs>
<clipPath id="clip0_726_4020">
<rect width="24" height="24" fill="white"/>
</clipPath>
</defs>
</svg>
